<?xml version="1.0" encoding="utf-8"?>
<!-- Generator: Adobe Illustrator 27.5.0, SVG Export Plug-In . SVG Version: 6.00 Build 0)  -->
<svg version="1.1" xmlns="http://www.w3.org/2000/svg" xmlns:xlink="http://www.w3.org/1999/xlink" x="0px" y="0px"
	 viewBox="0 0 500 500" style="enable-background:new 0 0 500 500;" xml:space="preserve">
<g id="BACKGROUND">
	<rect style="fill:#FFFFFF;" width="500" height="500"/>
	<g>
		<g style="opacity:0.3;">
			<path style="fill:none;stroke:#2C54AC;stroke-width:1.0454;stroke-miterlimit:10;stroke-dasharray:4.3168,4.3168;" d="
				M137.773,434.176c21.311-0.235,41.815-7.337,62.749-11.2c25.055-4.623,51.022-4.581,76.061,0.124
				c26.549,4.988,52.092,15.153,79.054,17.209c45.04,3.435,81.085-17.993,106.503-54.115c25.418-36.122,29.08-85.538,9.247-124.796
				c-6.751-13.363-15.953-25.516-21.992-39.193c-19.81-44.864,13.255-117.208-17.042-156.211
				c-16.515-21.26-44.291-32.472-71.737-34.072c-27.446-1.6-54.713,11.434-80.352,21.039c-24.726,9.264-57.83,30.547-83.784,25.292
				c-18.069-3.659-33.325-15.271-50.846-20.897c-37.288-11.973-80.508,6.619-102.337,38.212
				C21.47,127.161,18.916,168.64,29.456,205.243c6.336,22.001,17.132,43.332,17.198,66.171c0.043,14.991-4.578,29.578-7.071,44.374
				C29.918,373.146,75.096,434.867,137.773,434.176z"/>
		</g>
		<path style="opacity:0.3;fill:#9DDCF9;" d="M113.426,417.669c21.166,2.41,42.443-2.091,63.716-3.326
			c25.462-1.478,51.208,1.785,75.417,9.555c25.668,8.239,49.653,21.488,76.119,26.871c44.212,8.992,82.718-16.675,112.716-49.346
			c29.998-32.671,40.182-81.225,25.719-122.618c-4.923-14.09-12.438-27.283-16.614-41.597
			c-13.697-46.95,25.832-95.665,5.409-140.511c-11.113-24.402-34.105-40.357-61.112-45.347c-27.007-4.991-63.982-1.396-90.683,4.951
			c-25.751,6.121-60.226,24.095-85.269,15.665c-17.435-5.869-31.025-19.278-47.655-27.03
			c-35.392-16.499-80.722-3.419-106.559,25.205C38.793,98.766,30.76,139.585,36.36,177.194c3.366,22.605,11.244,45.099,8.282,67.757
			c-1.945,14.872-8.462,28.766-12.896,43.13C14.554,343.767,51.175,410.582,113.426,417.669z"/>
	</g>
</g>
<g id="OBJECTS">
	<g>
		<path style="fill:#FF8775;" d="M170.266,287.418c-0.456-1.947-1.968-3.462-3.536-4.702c-1.569-1.24-2.956-2.456-4.139-4.068
			c-0.283-4.928-0.682-9.849-1.197-14.759c-0.713-6.8-1.663-13.639-3.991-20.068c-2.328-6.429-6.142-12.483-11.685-16.486
			c-5.791,6.097-12.161,12.314-18.633,17.683c-4.405,3.654-10.516,5.541-14.788,9.349c-5.655,5.041-11.141,10.458-14.843,17.067
			c-5.294,9.452-6.536,20.564-7.674,31.338c-1.533,14.509-3.088,28.654-4.62,43.163c13.732,7.693,29.092,13.094,44.54,16.109
			c-2.184-11.473-0.474-23.692,3.416-34.704c3.606,0.965,7.245,1.935,10.974,2.128c3.728,0.192,7.603-0.451,10.728-2.493
			c4.069-2.657,6.256-7.199,7.381-12.034c-1.798-0.145-3.193-1.113-3.193-2.299c0-1.286,1.633-2.329,3.648-2.329
			c0.108,0,0.21,0.014,0.316,0.02c0.027-0.246,0.056-0.493,0.079-0.737c0.354-3.777,0.766-8.061,0.462-11.842
			c0.51-0.062,0.936-0.403,1.332-0.73c1.497-1.238,3.014-2.498,4.114-4.098C170.06,291.324,170.709,289.31,170.266,287.418z"/>
		<path style="fill:#0A2A6B;" d="M83.761,336.093c-4.361-3.487-6.9-8.383-7.875-13.88c5.298,7.154,12.898,12.575,21.387,15.256
			c8.489,2.68,17.467,2.713,25.913-0.102c-4.103-8.264-7.03-17.242-7.375-26.462c-0.345-9.22,2.044-18.709,7.679-26.014
			c5.492-7.119,13.662-11.784,19.251-18.827c6.538-8.239,8.951-18.915,11.181-29.194c2.956,4.246,4.821,9.364,5.58,14.482
			c5.811-4.687,9.36-11.795,8.612-19.224c-0.748-7.428-6.331-14.359-13.641-15.875c-5.186-1.076-10.501,0.466-15.694,1.509
			c-6.951,1.397-14.08,1.907-21.159,1.515c-7.114-0.394-14.189-1.694-21.31-1.458c-18.044,0.599-35.323,11.929-43.066,28.238
			c-7.064,14.88-6.282,32.299-3.149,48.471c1.306,6.741,3.019,13.479,6.179,19.576C61.722,324.606,72.452,332.62,83.761,336.093z"/>
		<g style="opacity:0.46;">
			<g>
				<path style="fill:#55A3F3;" d="M135.905,229.301c-1.678,5.084-3.729,10.045-6.046,14.88c-2.358,4.816-5.017,9.487-7.952,13.981
					c-5.829,9.025-13.396,16.818-18.269,26.294c-2.455,4.688-4.231,9.782-4.583,15.064c-0.361,5.275,0.356,10.622,1.642,15.759
					c1.346,5.114,3.625,10.077,7.232,13.988c3.542,3.923,8.424,6.781,13.77,7.381c-5.378-0.372-10.408-3.167-14.127-7.046
					c-3.753-3.921-6.157-8.946-7.616-14.121c-0.731-2.598-1.238-5.254-1.552-7.931c-0.316-2.677-0.44-5.389-0.256-8.094
					c0.332-5.434,2.128-10.68,4.604-15.461c2.502-4.793,5.683-9.162,8.941-13.409c3.276-4.242,6.579-8.435,9.577-12.849
					C127.254,248.9,132.152,239.325,135.905,229.301z"/>
			</g>
			<g>
				<path style="fill:#55A3F3;" d="M77.098,324.28c-2.916-3.119-4.96-7.013-6.153-11.13c-1.134-4.14-1.479-8.495-1.051-12.776
					c0.42-4.289,1.643-8.473,3.371-12.403c1.726-3.937,3.935-7.647,6.454-11.115c2.523-3.467,5.381-6.677,8.309-9.769
					c2.917-3.103,5.81-6.209,8.24-9.67c2.449-3.451,4.472-7.199,6.275-11.044c1.837-3.834,3.423-7.789,5.062-11.721
					c-2.874,7.995-5.877,16.072-10.704,23.202c-2.371,3.59-5.33,6.724-8.206,9.853c-2.905,3.111-5.697,6.299-8.168,9.737
					c-5.003,6.78-8.854,14.61-9.871,23.012c-0.512,4.184-0.258,8.466,0.76,12.567C72.436,317.125,74.355,321.014,77.098,324.28z"/>
			</g>
			<g>
				<path style="fill:#55A3F3;" d="M86.209,228.301c-2.536,5.672-5.815,11.027-9.705,15.903c-1.917,2.462-4.055,4.746-6.271,6.943
					c-2.232,2.183-4.576,4.226-6.828,6.345c-2.269,2.096-4.457,4.276-6.314,6.716c-1.852,2.439-3.354,5.139-4.547,7.968
					c-1.191,2.834-2.038,5.816-2.556,8.859c-0.577,3.037-0.745,6.142-0.73,9.245c-0.487-6.186,0.292-12.54,2.572-18.392
					c1.105-2.936,2.671-5.698,4.534-8.229c1.884-2.523,4.09-4.766,6.36-6.898c2.29-2.114,4.649-4.129,6.876-6.267
					c2.223-2.142,4.319-4.413,6.31-6.775c1.991-2.363,3.841-4.847,5.546-7.43C83.202,233.732,84.741,231.038,86.209,228.301z"/>
			</g>
			<g>
				<path style="fill:#55A3F3;" d="M150.641,222.312c1.488-0.005,2.981,0.381,4.347,1.024c1.364,0.658,2.589,1.596,3.646,2.69
					c2.137,2.211,3.357,5.151,3.925,8.114c0.546,2.986,0.495,6.042-0.029,8.997c-0.519,2.957-1.516,5.823-2.989,8.405
					c0.536-1.385,1.041-2.773,1.389-4.205c0.388-1.418,0.669-2.861,0.84-4.314c0.334-2.901,0.352-5.853-0.192-8.698
					c-0.522-2.837-1.639-5.593-3.511-7.786c-0.933-1.095-2.045-2.055-3.307-2.773C153.518,223.005,152.109,222.532,150.641,222.312z
					"/>
			</g>
		</g>
		<g>
			<path style="fill:#FF8775;" d="M110.945,282.886c-0.407,4.242,1.091,8.631,4.006,11.739c0.913,0.973,1.988,1.841,3.258,2.247
				c2.865,0.915,6.08-0.835,7.643-3.405c1.563-2.57,1.784-5.737,1.575-8.738c-0.27-3.879-1.548-8.191-5.019-9.943
				C116.811,271.962,111.45,277.631,110.945,282.886z"/>
			<path style="fill:#FF8775;" d="M122.5,294.143c-1.181-0.696-2.161-1.729-2.793-2.946c-0.127-0.245-0.243-0.51-0.222-0.785
				c0.039-0.525,0.54-0.876,0.99-1.15c0.91-0.552,1.821-1.105,2.731-1.657c0.182-0.11,0.371-0.229,0.476-0.414
				c0.115-0.204,0.105-0.452,0.093-0.686c-0.16-2.976-0.419-6.205-2.414-8.419c-0.539-0.598-1.209-1.106-1.987-1.31
				c-1.156-0.303-2.407,0.108-3.367,0.819c-0.96,0.711-1.678,1.694-2.361,2.674c0,0-2.052,5.792,1.207,10.368
				C118.112,295.216,122.5,294.143,122.5,294.143z"/>
			<g>
				<path style="fill:#0A2A6B;" d="M113.646,280.271c0.594-1.081,1.284-2.139,2.285-2.975c0.999-0.794,2.413-1.32,3.809-0.889
					c1.373,0.439,2.301,1.517,2.985,2.624c0.676,1.141,1.044,2.411,1.271,3.661c0.213,1.259,0.286,2.512,0.339,3.747
					c0.003,0.153,0.016,0.341-0.021,0.575c-0.027,0.226-0.168,0.531-0.354,0.702c-0.38,0.339-0.616,0.404-0.886,0.579l-1.609,0.91
					c-0.527,0.31-1.137,0.579-1.443,0.904c-0.153,0.169-0.212,0.315-0.174,0.537c0.038,0.222,0.185,0.504,0.314,0.766
					c0.522,1.071,1.351,1.99,2.339,2.731c-1.132-0.513-2.104-1.386-2.839-2.434c-0.174-0.271-0.354-0.521-0.476-0.898
					c-0.135-0.376-0.02-0.893,0.229-1.191c0.237-0.317,0.527-0.517,0.795-0.697l0.774-0.51l1.55-1.007
					c0.243-0.161,0.58-0.354,0.648-0.443c0.043-0.037,0.057-0.129,0.03-0.463c-0.085-1.222-0.167-2.434-0.385-3.603
					c-0.19-1.173-0.523-2.306-1.074-3.307c-0.538-0.997-1.334-1.911-2.311-2.31c-0.977-0.389-2.195-0.127-3.176,0.488
					C115.247,278.37,114.455,279.341,113.646,280.271z"/>
			</g>
		</g>
		<path style="fill:#0A2A6B;" d="M156.14,278.974c0,2.21-1.095,4.002-2.447,4.002c-1.351,0-2.447-1.792-2.447-4.002
			c0-2.21,1.095-4.002,2.447-4.002C155.045,274.972,156.14,276.764,156.14,278.974z"/>
		<g>
			<path style="fill:#0A2A6B;" d="M142.944,274.724c0.357-1.73,0.926-3.437,1.796-5.069c0.89-1.613,2.207-3.092,3.797-4.152
				c1.554-1.083,3.354-2.101,5.34-2.132c1.945-0.057,3.96,0.476,5.402,1.806l-0.093,0.285l-2.605,0.394
				c-0.811,0.165-1.579,0.296-2.332,0.491c-0.749,0.194-1.494,0.333-2.251,0.505c-0.76,0.154-1.534,0.36-2.239,0.716
				c-0.715,0.338-1.397,0.757-2.019,1.257c-0.642,0.478-1.226,1.042-1.762,1.677c-1.102,1.252-1.95,2.766-2.751,4.321
				L142.944,274.724z"/>
		</g>
		<polygon style="fill:#0A2A6B;" points="133.116,327.34 125.034,323.697 131.781,331.467 		"/>
		<path style="fill:#55A3F3;" d="M157.216,500H56.636c0,0-13.319-75.057,2.335-107.093c15.654-32.036,26.189-46.972,26.189-46.972
			s32.375-1.191,54.582,16.109c22.207,17.299,30.665,40.234,30.665,40.234L157.216,500z"/>
		<g style="opacity:0.3;">
			<defs>
				<path id="SVGID_1_" style="opacity:0.3;" d="M157.216,500H56.636c0,0-13.319-75.057,2.335-107.093
					c15.654-32.036,26.189-46.972,26.189-46.972s32.375-1.191,54.582,16.109c22.207,17.299,30.665,40.234,30.665,40.234L157.216,500
					z"/>
			</defs>
			<clipPath id="SVGID_00000159450415276551851170000007566190922668697776_">
				<use xlink:href="#SVGID_1_"  style="overflow:visible;"/>
			</clipPath>
			<g style="clip-path:url(#SVGID_00000159450415276551851170000007566190922668697776_);">
				<g>
					
						<line style="fill:none;stroke:#2C54AC;stroke-width:0.8139;stroke-miterlimit:10;" x1="167.082" y1="322.537" x2="167.082" y2="528.915"/>
					
						<line style="fill:none;stroke:#2C54AC;stroke-width:0.8139;stroke-miterlimit:10;" x1="143.957" y1="322.537" x2="143.957" y2="528.915"/>
					
						<line style="fill:none;stroke:#2C54AC;stroke-width:0.8139;stroke-miterlimit:10;" x1="120.832" y1="322.537" x2="120.832" y2="528.915"/>
					
						<line style="fill:none;stroke:#2C54AC;stroke-width:0.8139;stroke-miterlimit:10;" x1="97.707" y1="322.537" x2="97.707" y2="528.915"/>
					
						<line style="fill:none;stroke:#2C54AC;stroke-width:0.8139;stroke-miterlimit:10;" x1="74.581" y1="322.537" x2="74.581" y2="528.915"/>
				</g>
				<g>
					
						<line style="fill:none;stroke:#2C54AC;stroke-width:0.8139;stroke-miterlimit:10;" x1="44.239" y1="358.109" x2="185.389" y2="358.109"/>
					
						<line style="fill:none;stroke:#2C54AC;stroke-width:0.8139;stroke-miterlimit:10;" x1="44.239" y1="376.191" x2="185.389" y2="376.191"/>
					
						<line style="fill:none;stroke:#2C54AC;stroke-width:0.8139;stroke-miterlimit:10;" x1="44.239" y1="394.273" x2="185.389" y2="394.273"/>
					
						<line style="fill:none;stroke:#2C54AC;stroke-width:0.8139;stroke-miterlimit:10;" x1="44.239" y1="412.356" x2="185.389" y2="412.356"/>
					
						<line style="fill:none;stroke:#2C54AC;stroke-width:0.8139;stroke-miterlimit:10;" x1="44.239" y1="430.438" x2="185.389" y2="430.438"/>
					
						<line style="fill:none;stroke:#2C54AC;stroke-width:0.8139;stroke-miterlimit:10;" x1="44.239" y1="448.521" x2="185.389" y2="448.521"/>
					
						<line style="fill:none;stroke:#2C54AC;stroke-width:0.8139;stroke-miterlimit:10;" x1="44.239" y1="466.603" x2="185.389" y2="466.603"/>
					
						<line style="fill:none;stroke:#2C54AC;stroke-width:0.8139;stroke-miterlimit:10;" x1="44.239" y1="484.686" x2="185.389" y2="484.686"/>
					
						<line style="fill:none;stroke:#2C54AC;stroke-width:0.8139;stroke-miterlimit:10;" x1="44.239" y1="502.768" x2="185.389" y2="502.768"/>
					
						<line style="fill:none;stroke:#2C54AC;stroke-width:0.8139;stroke-miterlimit:10;" x1="44.239" y1="520.851" x2="185.389" y2="520.851"/>
				</g>
			</g>
		</g>
		<path style="fill:#FF8775;" d="M206.066,373.87l-28.099,52.072l-7.56-23.663c0,0-10.642,0-21.564,12.014
			c-10.921,12.014-15.654,20.751-15.654,20.751l41.137,54.971c0,0,22.571-34.584,28.76-54.243
			c6.189-19.659,18.202-50.603,18.202-50.603s31.269-10.539,38.947-17.474c7.678-6.935,11.3-31.273,9.272-35.329
			c-2.028-4.056-4.346,2.028-5.215,6.374s-6.085,16.08-6.085,16.08s6.374-17.095,3.767-29.263c-2.608-12.169-5.94-6.809-7.098-5.215
			c-1.159,1.594-2.98,12.417-4.383,18.355c-0.98,4.147-4.599,12.212-4.599,12.212s3.187-8.113,2.463-16.66
			c-0.724-8.547-3.187-10.286-4.346-9.996c-1.159,0.29-0.435,7.243-1.449,11.589c-1.014,4.346-3.035,12.097-3.035,12.097
			l-27.176,18.872C209.734,368.642,207.582,371.059,206.066,373.87z"/>
		<g>
			<path style="fill:#0A2A6B;" d="M150.265,457.861c-3.444-4.058-6.803-8.184-10.148-12.32c-3.347-4.135-6.623-8.325-9.938-12.485
				c-3.251-4.21-6.537-8.393-9.756-12.627l-4.813-6.364c-1.576-2.144-3.178-4.267-4.73-6.43c1.73,2.023,3.41,4.086,5.116,6.127
				l5.033,6.192c3.345,4.136,6.624,8.324,9.937,12.486c3.249,4.211,6.537,8.392,9.755,12.628
				C143.939,449.303,147.145,453.549,150.265,457.861z"/>
		</g>
		<g>
			<path style="fill:#0A2A6B;" d="M176.194,420.394c0.963,2.257,1.821,4.546,2.663,6.841c0.853,2.291,1.632,4.606,2.41,6.921
				c0.755,2.322,1.509,4.646,2.189,6.993l1.017,3.522c0.304,1.186,0.641,2.361,0.917,3.556c-0.491-1.124-0.92-2.269-1.382-3.402
				l-1.282-3.436c-0.852-2.292-1.631-4.607-2.408-6.924c-0.754-2.324-1.508-4.647-2.188-6.995
				C177.438,425.125,176.764,422.776,176.194,420.394z"/>
		</g>
		<g>
			<path style="fill:#0A2A6B;" d="M257.171,317.972c0.404,3.043,0.499,6.128,0.377,9.204c-0.11,3.079-0.496,6.146-1.076,9.174
				c-0.603,3.023-1.402,6.01-2.46,8.903l-0.829,2.155l-0.899,2.124c-0.663,1.389-1.331,2.771-2.093,4.103
				c0.274-0.718,0.555-1.43,0.846-2.136l0.793-2.151l0.76-2.158l0.691-2.179c0.875-2.918,1.636-5.865,2.209-8.852
				c0.596-2.982,1.003-6,1.292-9.032C257.063,324.092,257.163,321.04,257.171,317.972z"/>
		</g>
		<g>
			<path style="fill:#0A2A6B;" d="M249.668,373.703c1.496-2.267,2.749-4.686,3.646-7.23l0.025-0.071l0.074-0.047
				c1.108-0.714,2.168-1.494,3.131-2.381c0.966-0.883,1.839-1.864,2.653-2.897c0.816-1.029,1.564-2.105,2.118-3.252
				c0.548-1.143,0.845-2.4,0.627-3.599l0.293,0.348c-1.512-0.527-3.216-0.001-4.733,0.742c-1.525,0.768-3.065,1.702-4.613,2.514
				l-9.285,5.037l-2.323,1.256c-0.817,0.473-1.751,0.647-2.51,0.947c-1.565,0.663-3.046,1.618-4.331,2.768
				c-2.581,2.307-4.464,5.426-5.236,8.869c0.52-3.486,2.26-6.813,4.849-9.286c1.297-1.238,2.78-2.274,4.433-3.039
				c0.867-0.369,1.693-0.544,2.394-0.989l2.305-1.288l9.229-5.139c1.551-0.857,3.052-1.704,4.674-2.515
				c0.818-0.383,1.678-0.724,2.604-0.896c0.918-0.184,1.922-0.156,2.843,0.169l0.249,0.088l0.044,0.26
				c0.246,1.442-0.135,2.892-0.742,4.123c-0.606,1.249-1.448,2.329-2.309,3.356c-0.865,1.026-1.797,2.008-2.823,2.885
				c-1.025,0.878-2.134,1.652-3.291,2.326l0.098-0.118C252.7,369.167,251.345,371.563,249.668,373.703z"/>
		</g>
		<path style="fill:#FFFFFF;" d="M121.789,300.305c0,2.531-2.052,4.583-4.583,4.583c-2.531,0-4.583-2.052-4.583-4.583
			c0-2.531,2.052-4.583,4.583-4.583C119.737,295.722,121.789,297.774,121.789,300.305z"/>
	</g>
	<g>
		<path style="fill:#0A2A6B;" d="M320.471,361.532c0,0,14.482-65.114,22.32-102.45c9.709-46.245,90.68-62.005,108.336,10.638
			c17.656,72.643,28.25,156.384,20.179,177.572c-8.071,21.188-33.295,19.17-33.295,19.17L320.471,361.532z"/>
		<circle style="fill:none;stroke:#55A3F3;stroke-miterlimit:10;" cx="339.813" cy="312.096" r="14.672"/>
		<polygon style="fill:#2C54AC;" points="440.262,500 449.362,426.949 391.199,479.483 387.772,500 		"/>
		<path style="fill:#FF8775;" d="M375.367,231.328c-12.723,4.599-22.272,15.851-27.231,28.438
			c-4.96,12.586-5.798,26.433-5.158,39.947c0.404,8.535,1.408,17.177,4.673,25.073c3.265,7.897,9.039,15.047,16.878,18.449
			c6.18,2.682,13.253,2.871,19.829,1.407c6.576-1.464,12.71-4.497,18.43-8.057c18.75-11.67,25.545-31.815,29.572-53.53
			c1.384-7.463,9.884-13.688,7.474-20.885c-3.752-11.209-13.16-19.882-23.839-24.948c-10.68-5.065-22.595-6.905-34.378-7.846"/>
		<path style="fill:#0A2A6B;" d="M418.555,277.194c-12.98-7.184-23.027-19.157-27.562-33.283c1.013,5.663,0.598,10.757,1.612,16.42
			c0.055,0.307,0.108,0.632-0.005,0.922c-0.212,0.544-0.943,0.724-1.491,0.522c-0.548-0.201-0.948-0.669-1.31-1.127
			c-4.137-5.232-6.766-11.642-7.493-18.272c-4.916,4.644-10.266,9.331-16.039,12.855c-5.772,3.524-12.492,5.849-19.234,5.318
			c2.022-5.613,4.622-11.019,7.745-16.103c1.808-2.943,3.806-5.797,6.283-8.203c3.237-3.145,7.22-5.449,11.409-7.127
			c16.923-6.781,36.819-3.154,52.315,6.45c5.387,3.339,10.442,7.46,13.804,12.833c4.749,7.59,5.692,16.909,5.947,25.858
			c0.251,8.794-0.823,23.736-2.757,32.318C439.845,315.159,413.807,306.411,418.555,277.194z"/>
		<g>
			<path style="fill:#FF8775;" d="M438.348,302.239c-0.831,4.417-3.635,8.424-7.5,10.718c-1.21,0.718-2.553,1.283-3.96,1.322
				c-3.171,0.087-5.914-2.629-6.745-5.691c-0.831-3.062-0.125-6.335,0.966-9.314c1.411-3.851,3.97-7.844,8-8.601
				C435.608,289.452,439.378,296.768,438.348,302.239z"/>
			<path style="fill:#FF8775;" d="M423.341,310.256c1.401-0.359,2.696-1.118,3.693-2.166c0.2-0.21,0.396-0.445,0.455-0.73
				c0.114-0.544-0.29-1.046-0.666-1.455c-0.76-0.827-1.521-1.653-2.281-2.48c-0.152-0.165-0.309-0.34-0.36-0.559
				c-0.056-0.24,0.026-0.489,0.107-0.722c1.034-2.968,2.244-6.163,4.914-7.822c0.721-0.448,1.549-0.766,2.397-0.745
				c1.26,0.032,2.407,0.815,3.17,1.817c0.764,1.002,1.203,2.208,1.608,3.401c0,0,0.381,6.47-4.263,10.15
				C427.473,312.629,423.341,310.256,423.341,310.256z"/>
			<g>
				<path style="fill:#0A2A6B;" d="M436.379,298.798c-0.547-1.179-1.065-2.395-1.92-3.303c-0.813-0.91-1.97-1.533-3.074-1.426
					c-1.108,0.117-2.182,0.81-3.019,1.662c-0.852,0.853-1.522,1.903-2.058,3.036c-0.563,1.121-1.001,2.324-1.446,3.538
					c-0.058,0.152-0.101,0.273-0.113,0.349c-0.009,0.084-0.014,0.072,0.007,0.129c0.042,0.11,0.327,0.404,0.527,0.638l1.275,1.475
					l0.634,0.744c0.218,0.262,0.454,0.549,0.601,0.94c0.165,0.375,0.131,0.933-0.117,1.274c-0.233,0.346-0.489,0.547-0.745,0.77
					c-1.052,0.846-2.293,1.445-3.59,1.633c1.219-0.461,2.327-1.149,3.171-2.081c0.208-0.227,0.44-0.47,0.543-0.684
					c0.103-0.214,0.086-0.379-0.019-0.595c-0.215-0.418-0.754-0.87-1.197-1.339l-1.364-1.393c-0.222-0.257-0.442-0.392-0.728-0.847
					c-0.138-0.228-0.191-0.578-0.152-0.815c0.03-0.247,0.099-0.434,0.147-0.588c0.416-1.237,0.857-2.485,1.442-3.697
					c0.597-1.2,1.342-2.378,2.361-3.336c1.017-0.921,2.273-1.741,3.793-1.784c1.541-0.027,2.818,0.921,3.598,2.017
					C435.706,296.255,436.094,297.529,436.379,298.798z"/>
			</g>
		</g>
		<path style="fill:#0A2A6B;" d="M362.361,281.123c-0.477,2.489-2.097,4.271-3.619,3.979s-2.369-2.546-1.892-5.035
			c0.477-2.489,2.097-4.271,3.619-3.979C361.991,276.38,362.838,278.634,362.361,281.123z"/>
		<path style="fill:#0A2A6B;" d="M393.789,287.386c-0.48,2.507-2.112,4.302-3.645,4.008c-1.533-0.294-2.386-2.564-1.906-5.072
			c0.48-2.507,2.113-4.302,3.646-4.008C393.417,282.608,394.27,284.879,393.789,287.386z"/>
		<g>
			<path style="fill:#0A2A6B;" d="M350.546,272.657c0.676-1.632,1.557-3.201,2.718-4.641c1.178-1.417,2.75-2.621,4.511-3.363
				c1.73-0.771,3.689-1.432,5.646-1.089c1.921,0.31,3.8,1.213,4.965,2.79l-0.145,0.263l-2.633-0.103
				c-0.827,0.009-1.607-0.007-2.383,0.043c-0.772,0.049-1.53,0.046-2.306,0.072c-0.775,0.009-1.574,0.065-2.334,0.282
				c-0.766,0.197-1.515,0.48-2.219,0.855c-0.72,0.349-1.4,0.792-2.047,1.315c-1.317,1.022-2.436,2.35-3.514,3.726L350.546,272.657z"
				/>
		</g>
		<g>
			<path style="fill:#0A2A6B;" d="M400.171,278.401c-0.786-1.562-1.619-3.085-2.709-4.347c-0.53-0.64-1.109-1.21-1.746-1.694
				c-0.617-0.507-1.295-0.932-2.007-1.277c-0.702-0.363-1.474-0.576-2.232-0.738c-0.755-0.18-1.499-0.326-2.246-0.526
				c-0.751-0.202-1.518-0.341-2.327-0.514l-2.601-0.419l-0.09-0.286c1.455-1.316,3.475-1.829,5.419-1.754
				c1.986,0.05,3.776,1.086,5.319,2.184c1.579,1.075,2.882,2.566,3.757,4.188c0.854,1.641,1.407,3.353,1.747,5.086L400.171,278.401z
				"/>
		</g>
		<g>
			<path style="fill:#0A2A6B;" d="M373.583,278.618c0.482,4.002-0.605,8.199-2.72,11.731c-1.066,1.766-2.375,3.403-3.92,4.786
				c-1.529,1.401-3.285,2.552-5.169,3.405l0.313-1.211c1.587,2.597,3.13,5.224,4.466,7.994c-2.099-2.247-3.99-4.636-5.837-7.055
				l-0.555-0.728l0.868-0.484c1.665-0.929,3.191-2.079,4.58-3.369c1.374-1.308,2.624-2.75,3.686-4.334
				C371.434,286.19,372.893,282.564,373.583,278.618z"/>
		</g>
		<path style="fill:#0A2A6B;" d="M368.996,322.223c-0.423,1.443-2.848,2.002-5.418,1.249c-2.57-0.753-4.31-2.533-3.887-3.975
			c0.423-1.443,2.848-2.002,5.418-1.249C367.679,319.001,369.419,320.78,368.996,322.223z"/>
		<g>
			<path style="fill:#FF8775;" d="M329.96,389.529l70.353,21.54c0,0,8.797-14.469,17.012-22.38
				c4.716-4.541,6.815-6.413,10.696-9.657c-6.78-8.792-16.787-19.101-16.787-19.101l2.531-41.986l-31.299,21.809l-6.271,15.749
				c0,0-14.516-1.331-23.792-1.401c-3.684,4.391-9.806,11.97-13.682,18.268C332.88,381.862,329.96,389.529,329.96,389.529z"/>
			<path style="fill:#2C54AC;" d="M433.735,386.563c-1.904-2.569-3.833-5.095-5.713-7.533
				c-19.589,15.702-27.708,32.038-27.708,32.038l-70.353-21.54c0,0,2.921-7.667,8.762-17.159
				c3.876-6.298,9.998-13.877,13.682-18.268c-5.956-0.045-10.689-0.203-10.689-0.203s-11.042,11.528-26.226,37.753
				c-15.183,26.226-4.969,36.992-3.037,50.519c1.932,13.527-4.969,57.829-4.969,57.829h85.015
				c3.262-20.143,7.625-40.109,13.103-59.766C411.103,420.491,418.416,400.047,433.735,386.563z"/>
		</g>
		<path style="fill:#FF8775;" d="M341.714,353.899l-2.603,0.243c-14.9,1.393-28.212,9.858-35.823,22.743
			c-8.096,13.707-15.633,33.907-20.121,46.295c-4.817,13.296-9.056,27.429-11.776,36.994c-1.78,6.258,2.458,12.621,8.918,13.392
			c10.818,1.292,27.928,2.511,47.287,0.82c29.841-2.607,33.804-3.67,33.804-3.67l42.244,24.682l9.006-28.886
			c0,0-77.716-38.634-86.388-39.563c-8.672-0.929-16.37,5.028-16.37,5.028s-4.882-18.249,1.361-31.64
			C319.485,382.68,341.714,353.899,341.714,353.899z"/>
		<path style="fill:#FF8775;" d="M370.517,447.946l20.245-1.144c0,0,2.145-14.873,4.862-17.161
			c2.717-2.288,17.447-5.098,24.311-2.692c6.864,2.406-17.778,34.388-17.778,34.388L370.517,447.946z"/>
		<g>
			<path style="fill:#0A2A6B;" d="M309.892,431.978l-4.26,3.865c-1.413,1.293-2.879,2.538-4.219,3.89
				c-2.683,2.706-5.083,5.711-7.231,8.844l-0.315-0.569c6.01-0.311,12.024-0.516,18.036-0.772c6.012-0.26,12.025-0.472,18.04-0.662
				l0.167-0.005l0.13,0.098c5.229,3.961,10.455,7.927,15.639,11.947l7.782,6.023l7.74,6.079l-7.98-5.76l-7.938-5.816
				c-5.296-3.873-10.55-7.8-15.801-11.732l0.296,0.093c-6.012,0.255-12.025,0.488-18.039,0.673
				c-6.014,0.189-12.027,0.428-18.044,0.563l-0.733,0.016l0.417-0.586c1.124-1.579,2.309-3.089,3.558-4.557
				c1.25-1.464,2.548-2.891,3.958-4.206c1.41-1.322,2.914-2.507,4.375-3.75L309.892,431.978z"/>
		</g>
		<g>
			<path style="fill:none;" d="M423.457,504.462c0,0,1.065-1.703,2.714-4.462h-11.913L423.457,504.462z"/>
			<path style="fill:#FF8775;" d="M449.654,415.393c-1.399-8.013-8.425-18.72-15.919-28.83
				c-15.319,13.483-22.632,33.928-28.134,53.671c-4.594,16.483-8.338,32.822-11.372,49.662L411.172,500h10.999
				c4.598-7.693,12.957-23.979,17.349-34.398C448.93,443.282,450.502,420.25,449.654,415.393z"/>
		</g>
		<g>
			<path style="fill:#0A2A6B;" d="M409.933,426.141c1.356-0.192,2.732,0.003,4.068,0.255c1.339,0.259,2.675,0.532,4.003,0.846
				c2.655,0.624,5.287,1.406,7.796,2.518c2.5,1.116,4.881,2.574,6.885,4.479c1.008,0.943,1.912,2.001,2.689,3.149
				c0.393,0.571,0.736,1.176,1.056,1.792c0.279,0.625,0.671,1.232,0.679,2.066c-0.015,0.405-0.148,0.867-0.594,1.147
				c-0.472,0.247-0.902,0.117-1.242,0.036l-1.964-0.597c-1.313-0.388-2.61-0.822-3.903-1.265l-7.706-2.735
				c-5.116-1.789-10.383-3.327-15.775-3.394l0.104-0.898c3.181,0.712,6.186,2.034,8.934,3.747c2.719,1.755,5.249,3.734,7.649,5.88
				c2.39,2.156,4.625,4.47,6.63,7.01c1.956,2.563,3.706,5.413,4.215,8.767c0.09,0.842,0.037,1.744-0.308,2.578
				c-0.087,0.205-0.175,0.402-0.349,0.636c-0.173,0.215-0.396,0.376-0.626,0.493c-0.465,0.213-0.93,0.263-1.362,0.265
				c-0.873-0.018-1.651-0.12-2.49-0.337c-0.815-0.227-1.571-0.568-2.295-0.927c-2.881-1.445-5.612-3.139-8.287-4.889
				c-5.333-3.503-10.532-7.26-16.447-9.592l0.321-0.527l5.998,5.404c1.997,1.801,4.008,3.597,5.92,5.503
				c1.897,1.913,3.722,3.936,5.122,6.256c0.674,1.169,1.31,2.375,1.591,3.719c0.013,0.364-0.23,0.684-0.527,0.851
				c-0.299,0.189-0.661,0.195-0.993,0.186c-0.673-0.022-1.347-0.066-2.009-0.186c0.664,0.106,1.339,0.134,2.01,0.141
				c0.334,0.001,0.678-0.013,0.957-0.199c0.279-0.167,0.491-0.466,0.471-0.79c-0.3-1.28-0.964-2.495-1.655-3.627
				c-1.436-2.266-3.292-4.233-5.221-6.092c-1.936-1.858-4.001-3.584-6.015-5.37l-6.066-5.328l-1.305-1.146l1.626,0.62
				c6.038,2.301,11.348,6.015,16.686,9.462c2.672,1.732,5.383,3.396,8.217,4.803c0.705,0.347,1.414,0.659,2.14,0.857
				c0.704,0.185,1.523,0.287,2.243,0.295c0.363,0,0.708-0.056,0.971-0.178c0.264-0.138,0.375-0.288,0.523-0.656
				c0.266-0.648,0.317-1.389,0.234-2.127c-0.179-1.482-0.797-2.961-1.489-4.343c-0.713-1.386-1.599-2.686-2.566-3.926
				c-1.956-2.467-4.195-4.738-6.526-6.874c-2.347-2.118-4.855-4.094-7.492-5.811c-2.656-1.672-5.573-2.967-8.625-3.663l-4.278-0.974
				l4.382,0.076c5.557,0.097,10.911,1.687,16.041,3.516l7.671,2.831c1.28,0.456,2.564,0.904,3.859,1.305l1.94,0.617
				c0.301,0.09,0.604,0.128,0.75,0.036c0.149-0.078,0.28-0.342,0.282-0.605c0.019-0.555-0.318-1.177-0.59-1.781
				c-0.301-0.596-0.624-1.183-0.997-1.74c-0.737-1.118-1.601-2.157-2.572-3.089c-1.937-1.871-4.221-3.376-6.673-4.528
				c-2.454-1.154-5.053-1.992-7.687-2.672c-1.317-0.343-2.646-0.645-3.977-0.934C412.655,426.204,411.293,425.98,409.933,426.141z"
				/>
		</g>
		<g>
			<path style="fill:#0A2A6B;" d="M374.102,447.744c3.641,1.534,7.234,3.167,10.82,4.815c3.587,1.646,7.135,3.372,10.704,5.054
				c3.534,1.755,7.087,3.471,10.603,5.262l5.266,2.705c1.739,0.935,3.493,1.838,5.22,2.8c-1.825-0.758-3.622-1.574-5.433-2.359
				l-5.387-2.454c-3.586-1.648-7.135-3.371-10.703-5.056c-3.533-1.757-7.087-3.47-10.602-5.264
				C381.072,451.456,377.563,449.649,374.102,447.744z"/>
		</g>
		<g>
			<path style="fill:#0A2A6B;" d="M402.617,440.271c2.932,1.037,5.787,2.291,8.56,3.718c2.779,1.417,5.445,3.06,7.979,4.893
				c2.519,1.851,4.906,3.898,7.034,6.192c1.062,1.148,2.074,2.34,3.018,3.582c0.918,1.263,1.8,2.55,2.552,3.912
				c-0.942-1.237-1.895-2.457-2.933-3.604c-1.011-1.167-2.074-2.286-3.186-3.352c-2.223-2.133-4.58-4.119-7.074-5.924
				c-2.48-1.825-5.093-3.466-7.758-5.029C408.137,443.108,405.385,441.687,402.617,440.271z"/>
		</g>
		<path style="fill:#0A2A6B;" d="M379.815,345.551c0,0,8.163-0.385,17.448-6.306c8.862-5.651,10.264-8.857,10.264-8.857
			s-3.831,7.362-13.167,12.766c-8.547,4.947-16.213,6.375-16.213,6.375L379.815,345.551z"/>
		<g style="opacity:0.4;">
			<g>
				<path style="fill:#55A3F3;" d="M392.929,219.724c1.037,7.412,3.337,14.613,6.768,21.213c3.431,6.596,7.941,12.64,13.43,17.645
					c5.434,5.063,11.822,9.073,18.674,11.957c3.426,1.449,6.983,2.597,10.616,3.429c3.628,0.865,7.339,1.375,11.075,1.602
					c-3.745-0.001-7.49-0.414-11.178-1.123c-3.683-0.741-7.301-1.817-10.803-3.197c-7.001-2.772-13.489-6.849-19.06-11.934
					c-5.518-5.144-10.108-11.279-13.436-18.033c-1.658-3.379-3.024-6.898-4.06-10.509
					C393.948,227.156,393.233,223.456,392.929,219.724z"/>
			</g>
			<g>
				<path style="fill:#55A3F3;" d="M408.599,222.059c1.33,3.949,3.202,7.682,5.56,11.069c2.359,3.383,5.145,6.469,8.336,9.074
					c3.14,2.666,6.676,4.853,10.43,6.56l2.861,1.183l2.947,0.965l3.011,0.774c1.022,0.172,2.044,0.357,3.07,0.551
					c-1.036-0.086-2.076-0.182-3.117-0.29l-3.088-0.561l-3.029-0.843l-2.96-1.074c-3.892-1.593-7.508-3.836-10.765-6.499
					c-3.205-2.725-6.066-5.874-8.333-9.416l-1.591-2.717l-1.375-2.827l-1.109-2.936
					C409.153,224.068,408.871,223.062,408.599,222.059z"/>
			</g>
			<g>
				<path style="fill:#55A3F3;" d="M345.546,249.75c1.851,0.472,3.766,0.27,5.576-0.198c1.823-0.457,3.604-1.087,5.332-1.813
					c3.453-1.469,6.673-3.464,9.531-5.883c2.906-2.363,5.437-5.182,7.529-8.299c0.522-0.78,1.051-1.558,1.497-2.387
					c0.23-0.41,0.476-0.812,0.694-1.229l0.62-1.269c0.454-0.83,0.776-1.718,1.157-2.584c0.358-0.875,0.631-1.782,0.968-2.673
					c-0.409,1.854-0.953,3.688-1.677,5.457l-0.564,1.319c-0.201,0.434-0.43,0.854-0.644,1.282c-0.414,0.865-0.912,1.682-1.407,2.504
					c-2.004,3.274-4.606,6.165-7.535,8.647c-2.981,2.415-6.285,4.475-9.883,5.825c-1.804,0.655-3.637,1.213-5.519,1.58
					C349.346,250.348,347.337,250.444,345.546,249.75z"/>
			</g>
			<g>
				<path style="fill:#55A3F3;" d="M444.908,288.793c0.491,7.227,1.208,14.435,2.179,21.607c0.941,7.176,2.101,14.322,3.521,21.415
					c1.415,7.095,3.031,14.146,4.876,21.142c1.841,6.998,3.824,13.965,5.647,20.983c1.801,7.021,3.422,14.107,4.52,21.29
					c1.078,7.176,1.741,14.46,1.341,21.731c-0.316,7.269-1.628,14.486-3.83,21.407c-1.13,3.448-2.42,6.859-4.134,10.065
					c-1.699,3.204-3.862,6.196-6.598,8.58c2.682-2.445,4.764-5.471,6.381-8.693c1.632-3.224,2.838-6.644,3.884-10.098
					c2.093-6.91,3.309-14.085,3.529-21.294c0.517-14.457-2.415-28.775-6.06-42.74c-1.789-7.01-3.743-13.985-5.558-21.003
					c-1.806-7.021-3.449-14.092-4.749-21.226c-1.331-7.128-2.412-14.301-3.252-21.5
					C445.794,303.257,445.237,296.028,444.908,288.793z"/>
			</g>
			<g>
				<path style="fill:#55A3F3;" d="M425.917,316.755c1.356,5.637,2.898,11.215,4.405,16.812c1.509,5.595,2.914,11.23,4.029,16.937
					c1.034,5.718,1.757,11.522,1.74,17.351c-0.017,2.912-0.196,5.824-0.591,8.707c-0.427,2.877-1.031,5.731-1.937,8.487
					c1.393-5.63,1.9-11.426,1.759-17.186c-0.141-5.765-0.849-11.508-1.952-17.174c-1.026-5.685-2.44-11.299-3.789-16.932
					C428.229,328.123,426.869,322.477,425.917,316.755z"/>
			</g>
			<g>
				<path style="fill:#55A3F3;" d="M343.644,309.313c-0.135,3.871-0.724,7.719-1.462,11.519c-0.736,3.804-1.692,7.554-2.538,11.319
					c-0.924,3.747-1.745,7.51-2.385,11.304l-0.436,2.852l-0.318,2.868l-0.221,2.882c-0.017,0.963-0.044,1.928-0.081,2.896
					c-0.071-0.963-0.134-1.93-0.184-2.899l-0.004-2.91l0.18-2.906l0.303-2.896c0.488-3.854,1.325-7.647,2.174-11.421l2.761-11.251
					C342.324,316.919,343.098,313.143,343.644,309.313z"/>
			</g>
			<g>
				<path style="fill:#55A3F3;" d="M356.412,338.914c-0.137,2.661-0.467,5.259-0.771,7.867c-0.334,2.604-0.642,5.204-1.156,7.819
					c-0.277-2.653-0.145-5.311,0.164-7.941C354.987,344.032,355.503,341.422,356.412,338.914z"/>
			</g>
		</g>
		<path style="fill:#55A3F3;" d="M419.403,340.562c-8.366,0-15.172-6.806-15.172-15.172c0-8.366,6.806-15.172,15.172-15.172
			c1.657,0,3.288,0.267,4.848,0.792l-0.318,0.947c-1.457-0.49-2.98-0.739-4.529-0.739c-7.815,0-14.172,6.357-14.172,14.172
			c0,7.814,6.357,14.172,14.172,14.172c7.813,0,14.171-6.357,14.171-14.172c0-4.192-1.842-8.147-5.053-10.849l-0.519-0.4
			l1.164-0.366c3.436,2.893,5.408,7.126,5.408,11.614C434.574,333.756,427.768,340.562,419.403,340.562z"/>
		<path style="fill:none;stroke:#55A3F3;stroke-miterlimit:10;" d="M428.843,314.159"/>
		<path style="fill:none;stroke:#55A3F3;stroke-miterlimit:10;" d="M424.091,311.483"/>
		<path style="fill:none;stroke:#55A3F3;stroke-miterlimit:10;" d="M348.072,353.899c0,0-7.761,10.254-11.924,16.439
			c-6.188,9.192-11.838,21.372-11.838,21.372l78.398,25.584c0,0,7.314-14.734,15.859-24.01c8.545-9.276,12.247-10.609,12.247-10.609
			"/>
	</g>
	<g>
		<g>
			<circle style="fill:#55A3F3;" cx="264.534" cy="152.143" r="106.303"/>
			<ellipse style="fill:none;stroke:#55A3F3;stroke-miterlimit:10;" cx="266.003" cy="152.143" rx="114.418" ry="106.303"/>
			<polygon style="fill:#55A3F3;" points="324.174,280.618 289.14,242.8 310.51,236.905 			"/>
			<polygon style="fill:#55A3F3;" points="192.15,280.618 227.184,242.8 205.814,236.905 			"/>
		</g>
		<g>
			<g>
				<path style="fill:#2C54AC;" d="M252.11,187.632v-11.048c0-6.948,0.866-12.75,2.606-17.408c1.736-4.654,3.96-8.651,6.671-11.987
					c2.71-3.335,5.453-6.322,8.234-8.964c3.753-3.472,7.088-6.912,10.006-10.319c2.919-3.404,4.378-7.886,4.378-13.447
					c0-3.055-0.766-5.628-2.293-7.713c-1.53-2.085-3.371-3.717-5.524-4.899c-2.156-1.18-4.274-1.772-6.359-1.772
					c-4.033,0-7.401,0.938-10.111,2.814c-2.71,1.876-4.935,4.274-6.671,7.192c-1.74,2.919-3.231,5.977-4.482,9.173h-5.678
					l-18.295-11.258c0.833-2.502,2.293-5.697,4.378-9.59c2.085-3.889,5.036-7.781,8.86-11.674c3.821-3.889,8.615-7.156,14.384-9.798
					c5.765-2.638,12.681-3.961,20.743-3.961c7.922,0,15.042,1.355,21.368,4.065c6.322,2.71,11.362,6.88,15.114,12.509
					c3.753,5.628,5.629,13.029,5.629,22.202c0,7.645-1.043,13.831-3.128,18.554c-2.085,4.726-4.658,8.723-7.713,11.987
					c-3.059,3.267-6.118,6.498-9.173,9.694c-2.365,2.365-4.622,4.971-6.776,7.818c-2.156,2.85-3.857,6.149-5.107,9.902
					c-1.251,3.752-1.876,8.27-1.876,13.551v4.377H252.11z M266.703,231.62c-5.003,0-9.105-1.355-12.3-4.065
					c-3.199-2.711-4.795-6.287-4.795-10.737c0-4.307,1.632-7.922,4.899-10.841c3.264-2.918,7.329-4.378,12.195-4.378
					c4.863,0,8.86,1.46,11.987,4.378c3.127,2.919,4.691,6.534,4.691,10.841c0,4.45-1.531,8.026-4.586,10.737
					C275.736,230.265,271.706,231.62,266.703,231.62z"/>
			</g>
			<g>
				<path style="fill:#FFFFFF;" d="M246.432,187.632v-11.048c0-6.948,0.866-12.75,2.606-17.408c1.736-4.654,3.96-8.651,6.671-11.987
					c2.71-3.335,5.453-6.322,8.234-8.964c3.753-3.472,7.088-6.912,10.006-10.319c2.919-3.404,4.378-7.886,4.378-13.447
					c0-3.055-0.766-5.628-2.293-7.713c-1.53-2.085-3.371-3.717-5.524-4.899c-2.156-1.18-4.274-1.772-6.359-1.772
					c-4.033,0-7.401,0.938-10.111,2.814c-2.71,1.876-4.935,4.274-6.671,7.192c-1.74,2.919-3.231,5.977-4.482,9.173l-23.973-11.258
					c0.834-2.502,2.293-5.697,4.378-9.59c2.085-3.889,5.036-7.781,8.86-11.674c3.821-3.889,8.615-7.156,14.384-9.798
					c5.765-2.638,12.681-3.961,20.743-3.961c7.921,0,15.042,1.355,21.368,4.065c6.322,2.71,11.362,6.88,15.114,12.509
					c3.753,5.628,5.629,13.029,5.629,22.202c0,7.645-1.043,13.831-3.128,18.554c-2.085,4.726-4.658,8.723-7.713,11.987
					c-3.059,3.267-6.118,6.498-9.173,9.694c-2.365,2.365-4.622,4.971-6.775,7.818c-2.156,2.85-3.857,6.149-5.107,9.902
					c-1.251,3.752-1.876,8.27-1.876,13.551v4.377H246.432z M261.025,231.62c-5.003,0-9.105-1.355-12.299-4.065
					c-3.199-2.711-4.795-6.287-4.795-10.737c0-4.307,1.632-7.922,4.899-10.841c3.264-2.918,7.329-4.378,12.195-4.378
					c4.863,0,8.86,1.46,11.987,4.378c3.127,2.919,4.691,6.534,4.691,10.841c0,4.45-1.531,8.026-4.586,10.737
					C270.057,230.265,266.028,231.62,261.025,231.62z"/>
			</g>
		</g>
	</g>
	<g>
		
			<ellipse transform="matrix(0.155 -0.9879 0.9879 0.155 -77.4484 199.647)" style="fill:#2C54AC;" cx="77.983" cy="145.098" rx="51.349" ry="51.349"/>
		
			<ellipse style="fill:none;stroke:#2C54AC;stroke-width:0.9323;stroke-miterlimit:10;" cx="77.807" cy="145.098" rx="56.059" ry="51.349"/>
		<polygon style="fill:#2C54AC;" points="64.983,192.278 73.562,213.887 78.371,192.278 		"/>
		<g>
			<g>
				<path style="fill:#55A3F3;" d="M74.817,162.526l-0.864-5.085c-0.544-3.198-0.599-5.936-0.162-8.216
					c0.435-2.278,1.146-4.292,2.133-6.039c0.986-1.747,2.015-3.337,3.089-4.77c1.456-1.892,2.722-3.736,3.799-5.532
					c1.077-1.795,1.398-3.972,0.963-6.532c-0.239-1.406-0.793-2.531-1.659-3.371c-0.867-0.84-1.843-1.447-2.926-1.823
					c-1.085-0.374-2.106-0.481-3.065-0.318c-1.856,0.315-3.333,1.011-4.434,2.086c-1.101,1.076-1.937,2.353-2.508,3.832
					c-0.572,1.48-1.02,3.004-1.346,4.573l-2.614,0.444l-9.302-3.751c0.188-1.217,0.61-2.802,1.265-4.756
					c0.655-1.953,1.709-3.975,3.165-6.067c1.454-2.089,3.406-3.968,5.854-5.635c2.447-1.665,5.527-2.815,9.238-3.446
					c3.646-0.62,7.03-0.553,10.153,0.2c3.122,0.753,5.768,2.278,7.935,4.575c2.168,2.297,3.61,5.557,4.328,9.779
					c0.598,3.519,0.602,6.448,0.012,8.785c-0.59,2.338-1.462,4.38-2.613,6.121c-1.152,1.743-2.307,3.469-3.464,5.179
					c-0.903,1.273-1.738,2.649-2.507,4.129c-0.77,1.48-1.294,3.132-1.576,4.957c-0.282,1.825-0.217,3.953,0.196,6.384l0.342,2.015
					L74.817,162.526z M84.975,181.632c-2.303,0.391-4.297,0.089-5.979-0.909c-1.685-0.998-2.699-2.519-3.047-4.567
					c-0.337-1.982,0.131-3.774,1.407-5.373c1.274-1.599,3.031-2.588,5.271-2.969c2.238-0.38,4.192-0.021,5.86,1.077
					c1.668,1.099,2.67,2.641,3.007,4.623c0.348,2.048-0.077,3.814-1.271,5.301C89.026,180.301,87.278,181.24,84.975,181.632z"/>
			</g>
			<g>
				<path style="fill:#FFFFFF;" d="M72.204,162.97l-0.864-5.085c-0.544-3.198-0.599-5.936-0.162-8.216
					c0.435-2.278,1.146-4.292,2.133-6.039c0.986-1.747,2.015-3.337,3.089-4.77c1.456-1.892,2.722-3.736,3.799-5.532
					c1.077-1.795,1.398-3.972,0.963-6.532c-0.239-1.406-0.793-2.531-1.659-3.371c-0.867-0.84-1.843-1.447-2.926-1.823
					c-1.085-0.374-2.106-0.481-3.065-0.318c-1.856,0.315-3.333,1.01-4.434,2.086c-1.101,1.076-1.937,2.353-2.508,3.832
					c-0.572,1.48-1.02,3.004-1.346,4.573l-11.915-3.306c0.188-1.217,0.61-2.802,1.265-4.756c0.655-1.953,1.709-3.975,3.165-6.067
					c1.454-2.089,3.406-3.968,5.854-5.635c2.447-1.665,5.527-2.815,9.238-3.446c3.646-0.62,7.03-0.553,10.153,0.2
					c3.122,0.753,5.768,2.278,7.935,4.575c2.168,2.297,3.61,5.557,4.328,9.779c0.598,3.519,0.602,6.448,0.012,8.785
					c-0.59,2.338-1.462,4.38-2.613,6.121c-1.152,1.743-2.308,3.47-3.464,5.18c-0.904,1.273-1.739,2.649-2.507,4.129
					c-0.77,1.48-1.294,3.132-1.576,4.957c-0.282,1.825-0.217,3.954,0.196,6.384l0.342,2.015L72.204,162.97z M82.361,182.076
					c-2.303,0.391-4.297,0.089-5.979-0.909c-1.685-0.997-2.699-2.519-3.047-4.567c-0.337-1.982,0.131-3.774,1.407-5.373
					c1.274-1.599,3.031-2.589,5.271-2.969c2.238-0.38,4.192-0.021,5.86,1.077c1.667,1.099,2.67,2.641,3.007,4.623
					c0.348,2.048-0.077,3.814-1.271,5.301C86.413,180.746,84.664,181.684,82.361,182.076z"/>
			</g>
		</g>
	</g>
	<g>
		
			<ellipse transform="matrix(0.8799 -0.4752 0.4752 0.8799 -29.1291 228.1113)" style="fill:#0A2A6B;" cx="436.678" cy="171.678" rx="36.162" ry="36.162"/>
		
			<ellipse transform="matrix(0.2952 -0.9554 0.9554 0.2952 143.3184 538.0812)" style="fill:none;stroke:#0A2A6B;stroke-miterlimit:10;" cx="436.384" cy="171.896" rx="36.162" ry="39.389"/>
		<polygon style="fill:#0A2A6B;" points="435.616,206.126 425.351,218.882 426.608,203.343 		"/>
		<g>
			<g>
				<path style="fill:#55A3F3;" d="M430.778,181.764l0.551-3.36c0.346-2.113,0.899-3.834,1.66-5.164
					c0.76-1.329,1.635-2.433,2.626-3.313c0.99-0.879,1.973-1.651,2.951-2.316c1.314-0.869,2.5-1.749,3.557-2.639
					c1.057-0.89,1.724-2.18,2.001-3.871c0.152-0.929,0.048-1.75-0.313-2.46c-0.362-0.71-0.84-1.298-1.436-1.765
					c-0.597-0.466-1.211-0.752-1.845-0.856c-1.227-0.201-2.297-0.084-3.215,0.352c-0.918,0.436-1.714,1.054-2.387,1.855
					c-0.675,0.801-1.281,1.657-1.82,2.566l-1.727-0.283l-5.003-4.335c0.378-0.719,0.981-1.618,1.809-2.698
					c0.828-1.079,1.919-2.115,3.276-3.109c1.356-0.992,2.977-1.747,4.863-2.263c1.885-0.515,4.054-0.573,6.506-0.171
					c2.409,0.395,4.507,1.162,6.296,2.301c1.788,1.139,3.112,2.658,3.973,4.557c0.861,1.899,1.063,4.243,0.605,7.032
					c-0.381,2.325-1.006,4.154-1.876,5.487c-0.87,1.333-1.851,2.421-2.943,3.261c-1.093,0.841-2.184,1.671-3.273,2.491
					c-0.837,0.601-1.653,1.281-2.45,2.04c-0.798,0.759-1.479,1.678-2.047,2.757c-0.568,1.079-0.983,2.422-1.246,4.027l-0.218,1.331
					L430.778,181.764z M433.023,195.868c-1.521-0.249-2.701-0.866-3.538-1.849c-0.838-0.984-1.145-2.151-0.923-3.504
					c0.215-1.31,0.891-2.328,2.03-3.053c1.138-0.725,2.447-0.966,3.927-0.724c1.479,0.242,2.622,0.885,3.427,1.929
					c0.805,1.044,1.101,2.221,0.886,3.531c-0.222,1.353-0.866,2.364-1.93,3.037C435.838,195.906,434.545,196.117,433.023,195.868z"
					/>
			</g>
			<g>
				<path style="fill:#FFFFFF;" d="M429.051,181.481l0.551-3.36c0.346-2.113,0.899-3.834,1.66-5.164
					c0.76-1.329,1.635-2.434,2.626-3.313c0.99-0.879,1.973-1.651,2.951-2.316c1.314-0.869,2.5-1.749,3.557-2.64
					c1.057-0.89,1.724-2.18,2.001-3.871c0.152-0.929,0.048-1.75-0.313-2.46c-0.361-0.71-0.84-1.298-1.436-1.765
					c-0.597-0.466-1.211-0.752-1.845-0.856c-1.226-0.201-2.297-0.084-3.215,0.352c-0.918,0.436-1.714,1.054-2.387,1.855
					c-0.674,0.801-1.28,1.657-1.82,2.566l-6.73-4.618c0.378-0.719,0.981-1.618,1.809-2.698c0.828-1.079,1.919-2.115,3.276-3.109
					c1.356-0.992,2.977-1.747,4.863-2.263c1.885-0.515,4.054-0.573,6.506-0.171c2.409,0.395,4.507,1.162,6.296,2.301
					c1.788,1.139,3.112,2.658,3.973,4.557c0.861,1.899,1.063,4.243,0.605,7.032c-0.381,2.325-1.006,4.154-1.876,5.487
					c-0.87,1.333-1.851,2.421-2.943,3.261c-1.093,0.841-2.184,1.671-3.273,2.491c-0.837,0.601-1.653,1.281-2.45,2.04
					c-0.798,0.759-1.479,1.678-2.047,2.757c-0.568,1.079-0.983,2.422-1.246,4.027l-0.218,1.331L429.051,181.481z M431.297,195.585
					c-1.522-0.249-2.701-0.866-3.538-1.849c-0.838-0.984-1.145-2.151-0.923-3.504c0.215-1.31,0.891-2.328,2.03-3.053
					c1.138-0.725,2.447-0.966,3.927-0.724c1.479,0.242,2.622,0.885,3.427,1.929c0.805,1.044,1.101,2.221,0.886,3.531
					c-0.222,1.353-0.866,2.364-1.93,3.037C434.111,195.623,432.818,195.834,431.297,195.585z"/>
			</g>
		</g>
	</g>
	<g style="opacity:0.4;">
		<g>
			<path style="fill:#55A3F3;" d="M77.699,61.468l-1.06-3.699c-0.667-2.326-0.934-4.351-0.798-6.078
				c0.134-1.725,0.495-3.276,1.083-4.653c0.587-1.377,1.219-2.64,1.896-3.791c0.923-1.522,1.709-2.994,2.359-4.415
				c0.651-1.42,0.709-3.06,0.175-4.922c-0.293-1.023-0.796-1.811-1.508-2.362c-0.712-0.551-1.485-0.921-2.319-1.11
				c-0.835-0.188-1.601-0.183-2.299,0.017c-1.35,0.387-2.387,1.024-3.115,1.912c-0.727,0.888-1.242,1.904-1.543,3.048
				c-0.302,1.144-0.508,2.311-0.62,3.501l-9.106-1.468c0.039-0.917,0.221-2.127,0.545-3.63c0.325-1.502,0.939-3.088,1.846-4.759
				c0.906-1.669,2.197-3.222,3.875-4.661c1.677-1.436,3.865-2.543,6.564-3.317c2.652-0.76,5.166-0.99,7.544-0.69
				c2.377,0.301,4.464,1.213,6.26,2.737c1.797,1.524,3.135,3.821,4.015,6.892c0.734,2.559,0.978,4.73,0.734,6.512
				c-0.244,1.782-0.722,3.367-1.432,4.753c-0.71,1.387-1.424,2.763-2.14,4.125c-0.565,1.019-1.07,2.108-1.518,3.268
				c-0.449,1.161-0.701,2.429-0.759,3.805c-0.059,1.376,0.166,2.949,0.672,4.716l0.42,1.465L77.699,61.468z M86.806,74.793
				c-1.675,0.48-3.178,0.42-4.507-0.18c-1.331-0.6-2.209-1.645-2.636-3.134c-0.413-1.442-0.214-2.809,0.6-4.099
				c0.813-1.29,2.033-2.169,3.662-2.636c1.628-0.467,3.106-0.362,4.433,0.315c1.327,0.677,2.197,1.737,2.611,3.179
				c0.427,1.49,0.258,2.834-0.505,4.035C89.7,73.473,88.481,74.313,86.806,74.793z"/>
		</g>
		<g>
			<path style="fill:#55A3F3;" d="M440.453,69.281l1.31-3.618c0.824-2.275,1.796-4.072,2.917-5.391
				c1.12-1.318,2.323-2.363,3.606-3.134c1.283-0.771,2.535-1.424,3.759-1.959c1.641-0.692,3.141-1.423,4.5-2.192
				c1.36-0.768,2.369-2.063,3.028-3.884c0.362-1,0.417-1.934,0.164-2.798c-0.254-0.864-0.663-1.617-1.228-2.259
				c-0.566-0.642-1.189-1.087-1.872-1.334c-1.32-0.478-2.534-0.57-3.644-0.278c-1.11,0.293-2.123,0.814-3.037,1.564
				c-0.916,0.75-1.767,1.574-2.555,2.472l-6.515-6.529c0.57-0.72,1.426-1.594,2.571-2.621c1.144-1.026,2.572-1.951,4.286-2.772
				c1.712-0.82,3.669-1.322,5.872-1.503c2.201-0.18,4.622,0.207,7.262,1.163c2.594,0.939,4.765,2.228,6.515,3.865
				c1.749,1.637,2.905,3.6,3.466,5.888c0.561,2.288,0.298,4.934-0.789,7.937c-0.907,2.503-1.982,4.405-3.224,5.705
				c-1.243,1.3-2.56,2.304-3.947,3.01c-1.389,0.707-2.774,1.402-4.153,2.086c-1.055,0.494-2.103,1.08-3.146,1.757
				c-1.044,0.677-1.992,1.556-2.847,2.637c-0.855,1.08-1.595,2.485-2.221,4.215l-0.519,1.433L440.453,69.281z M440.015,85.415
				c-1.638-0.593-2.821-1.523-3.545-2.789c-0.726-1.267-0.825-2.627-0.297-4.084c0.511-1.41,1.474-2.4,2.89-2.969
				c1.415-0.569,2.919-0.564,4.512,0.013c1.592,0.577,2.728,1.529,3.406,2.855c0.678,1.327,0.761,2.696,0.25,4.106
				c-0.528,1.457-1.453,2.446-2.775,2.972C443.134,86.042,441.654,86.008,440.015,85.415z"/>
		</g>
		<g>
			<path style="fill:#55A3F3;" d="M398.965,105.402l0.037-3.122c0.023-1.963,0.287-3.6,0.794-4.91
				c0.506-1.309,1.148-2.431,1.925-3.365c0.777-0.934,1.562-1.768,2.356-2.506c1.072-0.969,2.026-1.93,2.862-2.882
				c0.836-0.952,1.263-2.214,1.282-3.785c0.01-0.863-0.198-1.593-0.622-2.187c-0.426-0.594-0.94-1.061-1.545-1.403
				c-0.605-0.34-1.202-0.515-1.791-0.522c-1.139-0.013-2.094,0.24-2.866,0.762c-0.772,0.521-1.409,1.191-1.909,2.01
				c-0.501,0.819-0.933,1.678-1.297,2.577l-6.737-3.261c0.244-0.704,0.667-1.602,1.269-2.695c0.602-1.092,1.449-2.182,2.542-3.269
				c1.092-1.086,2.458-1.993,4.097-2.721c1.638-0.726,3.596-1.077,5.874-1.05c2.238,0.026,4.246,0.433,6.024,1.22
				c1.777,0.787,3.188,1.982,4.229,3.585c1.042,1.603,1.547,3.7,1.517,6.292c-0.025,2.16-0.341,3.905-0.945,5.232
				c-0.605,1.328-1.345,2.449-2.219,3.361c-0.875,0.913-1.75,1.816-2.624,2.709c-0.676,0.66-1.322,1.389-1.94,2.187
				c-0.619,0.798-1.11,1.725-1.476,2.781c-0.366,1.056-0.558,2.331-0.575,3.823l-0.014,1.237L398.965,105.402z M402.943,117.88
				c-1.414-0.017-2.568-0.413-3.462-1.189c-0.895-0.777-1.334-1.792-1.319-3.05c0.014-1.217,0.487-2.233,1.42-3.047
				c0.932-0.814,2.085-1.213,3.461-1.197c1.374,0.016,2.499,0.442,3.372,1.277c0.874,0.835,1.304,1.862,1.289,3.079
				c-0.015,1.257-0.459,2.263-1.332,3.019C405.5,117.527,404.357,117.897,402.943,117.88z"/>
		</g>
		<g>
			<path style="fill:#55A3F3;" d="M30.503,78.136l-0.48-2.092c-0.302-1.316-0.39-2.452-0.263-3.41
				c0.126-0.957,0.374-1.81,0.742-2.56c0.368-0.749,0.758-1.434,1.17-2.055c0.56-0.821,1.042-1.617,1.446-2.389
				c0.405-0.771,0.486-1.684,0.245-2.737c-0.133-0.578-0.39-1.033-0.77-1.361c-0.38-0.328-0.8-0.557-1.259-0.688
				c-0.46-0.13-0.886-0.15-1.281-0.059c-0.764,0.175-1.361,0.499-1.792,0.972s-0.749,1.024-0.951,1.652
				c-0.202,0.628-0.352,1.272-0.45,1.932l-5.029-1.09c0.049-0.51,0.187-1.179,0.412-2.006c0.226-0.827,0.615-1.692,1.17-2.596
				c0.554-0.903,1.32-1.729,2.298-2.481c0.977-0.75,2.229-1.301,3.756-1.652c1.5-0.344,2.907-0.397,4.223-0.159
				c1.315,0.238,2.451,0.809,3.406,1.712c0.955,0.903,1.632,2.222,2.031,3.959c0.332,1.448,0.404,2.664,0.214,3.649
				c-0.189,0.985-0.503,1.854-0.939,2.605c-0.437,0.752-0.876,1.496-1.316,2.234c-0.345,0.551-0.659,1.142-0.943,1.775
				c-0.284,0.633-0.463,1.332-0.537,2.097c-0.074,0.765,0.004,1.648,0.234,2.647l0.19,0.829L30.503,78.136z M35.178,85.831
				c-0.947,0.217-1.783,0.139-2.506-0.235c-0.724-0.374-1.181-0.982-1.375-1.825c-0.187-0.815-0.035-1.571,0.456-2.266
				c0.491-0.695,1.198-1.148,2.119-1.359c0.921-0.211,1.741-0.109,2.46,0.308c0.719,0.417,1.172,1.034,1.359,1.849
				c0.193,0.843,0.059,1.586-0.402,2.232C36.83,85.182,36.126,85.614,35.178,85.831z"/>
		</g>
		<g>
			<path style="fill:#55A3F3;" d="M463.433,118.081l0.987-2.083c0.621-1.31,1.303-2.327,2.047-3.05
				c0.743-0.722,1.52-1.277,2.329-1.664c0.809-0.387,1.593-0.705,2.354-0.954c1.018-0.319,1.954-0.67,2.809-1.051
				c0.855-0.381,1.53-1.096,2.027-2.144c0.273-0.576,0.359-1.13,0.257-1.66c-0.102-0.53-0.303-1.002-0.604-1.418
				c-0.301-0.415-0.647-0.716-1.041-0.903c-0.76-0.36-1.479-0.485-2.158-0.373c-0.679,0.112-1.313,0.365-1.901,0.76
				c-0.589,0.395-1.143,0.838-1.665,1.329l-3.514-4.266c0.381-0.397,0.942-0.869,1.683-1.417c0.741-0.547,1.645-1.017,2.714-1.41
				c1.068-0.392,2.264-0.579,3.588-0.562c1.323,0.018,2.745,0.387,4.266,1.107c1.494,0.708,2.715,1.6,3.666,2.677
				c0.95,1.076,1.528,2.313,1.732,3.71c0.205,1.397-0.103,2.96-0.923,4.69c-0.683,1.442-1.433,2.515-2.248,3.219
				c-0.816,0.705-1.658,1.229-2.526,1.571c-0.869,0.343-1.734,0.679-2.596,1.008c-0.657,0.235-1.316,0.524-1.977,0.869
				c-0.661,0.345-1.277,0.815-1.848,1.411c-0.571,0.596-1.093,1.392-1.565,2.388l-0.391,0.825L463.433,118.081z M462.253,127.68
				c-0.943-0.447-1.596-1.069-1.956-1.866c-0.361-0.797-0.342-1.614,0.055-2.453c0.385-0.812,1.016-1.348,1.893-1.606
				c0.876-0.259,1.773-0.17,2.691,0.265c0.917,0.435,1.54,1.067,1.869,1.897c0.329,0.83,0.3,1.651-0.085,2.464
				c-0.398,0.839-1.006,1.376-1.825,1.615C464.077,128.232,463.196,128.128,462.253,127.68z"/>
		</g>
		<g>
			<path style="fill:#55A3F3;" d="M132.929,88.779l-0.068-2.588c-0.043-1.628,0.124-2.992,0.502-4.093
				c0.378-1.101,0.874-2.051,1.488-2.849c0.614-0.798,1.238-1.515,1.873-2.151c0.857-0.837,1.617-1.663,2.28-2.479
				c0.663-0.815,0.977-1.874,0.942-3.177c-0.019-0.716-0.214-1.314-0.585-1.792c-0.371-0.479-0.813-0.85-1.324-1.113
				c-0.512-0.263-1.012-0.389-1.5-0.376c-0.945,0.025-1.728,0.265-2.351,0.722c-0.623,0.456-1.13,1.032-1.518,1.726
				c-0.389,0.694-0.72,1.42-0.993,2.176l-5.685-2.488c0.18-0.591,0.502-1.349,0.966-2.273c0.464-0.924,1.131-1.854,2.003-2.789
				c0.871-0.935,1.974-1.73,3.308-2.384c1.334-0.654,2.946-1.006,4.834-1.056c1.855-0.049,3.532,0.224,5.03,0.82
				c1.498,0.596,2.704,1.541,3.618,2.836c0.914,1.295,1.399,3.017,1.456,5.165c0.047,1.791-0.159,3.246-0.618,4.365
				c-0.459,1.12-1.037,2.072-1.732,2.855c-0.696,0.784-1.393,1.56-2.088,2.327c-0.539,0.569-1.052,1.193-1.538,1.873
				c-0.487,0.681-0.865,1.464-1.135,2.351c-0.27,0.887-0.388,1.949-0.356,3.186l0.027,1.025L132.929,88.779z M136.62,98.992
				c-1.172,0.031-2.141-0.261-2.906-0.876c-0.766-0.615-1.162-1.443-1.19-2.485c-0.027-1.009,0.333-1.865,1.08-2.57
				c0.746-0.704,1.689-1.071,2.829-1.101c1.139-0.03,2.084,0.287,2.835,0.951c0.75,0.664,1.139,1.502,1.166,2.51
				c0.028,1.042-0.309,1.889-1.008,2.543C138.727,98.618,137.792,98.961,136.62,98.992z"/>
		</g>
	</g>
</g>
</svg>
